<svg id="Layer_1" data-name="Layer 1" xmlns="http://www.w3.org/2000/svg" viewBox="0 0 123.45 140.29"><defs><style>.cls-1{fill:#2723e2;}.cls-2{fill:#fff;}</style></defs><title>1</title><path class="cls-1" d="M120.9,109.56a7.37,7.37,0,0,0,3.33-5.76V40.21a7.37,7.37,0,0,0-3.33-5.76L65.83,2.65a7.37,7.37,0,0,0-6.66,0L4.1,34.44A7.4,7.4,0,0,0,.78,40.21V103.8a7.37,7.37,0,0,0,3.33,5.76l55.07,31.79a7.37,7.37,0,0,0,6.66,0Z" transform="translate(-0.78 -1.86)"/><path class="cls-2" d="M62.5,131.43a7.64,7.64,0,0,1-3.74-.91l-45.07-26A8.17,8.17,0,0,1,10,98V46a8.15,8.15,0,0,1,3.74-6.48l45.07-26a8.16,8.16,0,0,1,7.48,0l45.07,26A8.15,8.15,0,0,1,115.05,46V98a8.15,8.15,0,0,1-3.74,6.48h0l-45.07,26A7.62,7.62,0,0,1,62.5,131.43Zm0-117.21a6,6,0,0,0-2.92.68l-45.07,26A6.56,6.56,0,0,0,11.6,46V98a6.55,6.55,0,0,0,2.92,5l45.07,26a6.57,6.57,0,0,0,5.83,0l45.07-26a6.55,6.55,0,0,0,2.91-5V46a6.55,6.55,0,0,0-2.92-5L65.41,15A5.9,5.9,0,0,0,62.5,14.22Zm48.4,89.57Z" transform="translate(-0.78 -1.86)"/><path class="cls-2" d="M104.37,100.79H20.63a.83.83,0,1,1,0-1.65h83.74a.83.83,0,0,1,0,1.65Z" transform="translate(-0.78 -1.86)"/><path class="cls-2" d="M92.72,100.79H32.28a3.57,3.57,0,0,1-3.57-3.57V57.47a3.57,3.57,0,0,1,3.57-3.57h3.35a.83.83,0,0,1,0,1.65H32.28a1.92,1.92,0,0,0-1.92,1.92V97.22a1.92,1.92,0,0,0,1.92,1.92H92.72a1.92,1.92,0,0,0,1.92-1.92V57.47a1.92,1.92,0,0,0-1.92-1.92H89.36a.83.83,0,0,1,0-1.65h3.36a3.57,3.57,0,0,1,3.57,3.57V97.22A3.57,3.57,0,0,1,92.72,100.79Z" transform="translate(-0.78 -1.86)"/><path class="cls-2" d="M57,95.37H38.38a3.57,3.57,0,0,1-3.57-3.57V52.48a3.57,3.57,0,0,1,3.57-3.57H57a.83.83,0,1,1,0,1.65H38.38a1.92,1.92,0,0,0-1.92,1.92V91.8a1.92,1.92,0,0,0,1.92,1.92H57a.83.83,0,1,1,0,1.65Z" transform="translate(-0.78 -1.86)"/><path class="cls-2" d="M57,90.77H38.38a3.57,3.57,0,0,1-3.57-3.57V73.7a.83.83,0,0,1,1.65,0V87.2a1.92,1.92,0,0,0,1.92,1.92H57a.83.83,0,1,1,0,1.65Z" transform="translate(-0.78 -1.86)"/><path class="cls-2" d="M86.62,95.37H67.91a.83.83,0,0,1,0-1.65H86.62a1.92,1.92,0,0,0,1.92-1.92V52.48a1.92,1.92,0,0,0-1.92-1.92H68a.83.83,0,0,1,0-1.65H86.62a3.57,3.57,0,0,1,3.57,3.57V91.8A3.57,3.57,0,0,1,86.62,95.37Z" transform="translate(-0.78 -1.86)"/><path class="cls-2" d="M86.62,90.77H67.91a.83.83,0,0,1,0-1.65H86.62a1.92,1.92,0,0,0,1.92-1.92V81.49a.83.83,0,0,1,1.65,0V87.2A3.57,3.57,0,0,1,86.62,90.77Z" transform="translate(-0.78 -1.86)"/><path class="cls-2" d="M62.5,55a.82.82,0,0,1-.82-.72,4.18,4.18,0,0,0-1.4-2.7,5.29,5.29,0,0,0-3.28-1,.82.82,0,1,1,.1-1.64,6.85,6.85,0,0,1,4.26,1.46,5.85,5.85,0,0,1,2,3.75.82.82,0,0,1-.71.92h0Z" transform="translate(-0.78 -1.86)"/><path class="cls-2" d="M62.5,99.86a.82.82,0,0,1-.82-.82V54.12a5.85,5.85,0,0,1,2-3.75,6.85,6.85,0,0,1,4.26-1.46.82.82,0,0,1,.87.75v0a.82.82,0,0,1-.77.87h0a5.3,5.3,0,0,0-3.28,1.06,4.21,4.21,0,0,0-1.39,2.65V99a.82.82,0,0,1-.78.86Z" transform="translate(-0.78 -1.86)"/><path class="cls-2" d="M62.5,99.86a.82.82,0,0,1-.82-.72,4.18,4.18,0,0,0-1.4-2.7A5.31,5.31,0,0,0,57,95.37a.82.82,0,0,1,.1-1.64,6.85,6.85,0,0,1,4.26,1.46,5.85,5.85,0,0,1,2,3.75.82.82,0,0,1-.71.92H62.5Z" transform="translate(-0.78 -1.86)"/><path class="cls-2" d="M62.5,99.86h-.1a.82.82,0,0,1-.72-.91h0a5.85,5.85,0,0,1,2-3.75,6.85,6.85,0,0,1,4.26-1.46.82.82,0,0,1,.1,1.64,5.3,5.3,0,0,0-3.28,1.06,4.18,4.18,0,0,0-1.4,2.7A.82.82,0,0,1,62.5,99.86Z" transform="translate(-0.78 -1.86)"/><path class="cls-2" d="M62.5,95.25a.82.82,0,0,1-.82-.72,4.18,4.18,0,0,0-1.4-2.7A5.3,5.3,0,0,0,57,90.77a.82.82,0,1,1,.1-1.64h0a6.85,6.85,0,0,1,4.26,1.46,5.85,5.85,0,0,1,2,3.75.82.82,0,0,1-.71.92H62.5Z" transform="translate(-0.78 -1.86)"/><path class="cls-2" d="M62.5,95.25h-.1a.82.82,0,0,1-.72-.91h0a5.85,5.85,0,0,1,2-3.75,6.85,6.85,0,0,1,4.26-1.46H86a.83.83,0,0,1,0,1.65H68a5.24,5.24,0,0,0-3.23,1.06,4.18,4.18,0,0,0-1.4,2.7A.82.82,0,0,1,62.5,95.25Z" transform="translate(-0.78 -1.86)"/><path class="cls-2" d="M77.07,70.54a.83.83,0,0,1-.48-.15l-2.77-2-2.77,2a.82.82,0,0,1-1.3-.67v-20a.83.83,0,0,1,1.65,0v18.4l1.94-1.39a.81.81,0,0,1,1,0l1.94,1.39V49.67a.83.83,0,1,1,1.65,0v20a.82.82,0,0,1-.82.82Z" transform="translate(-0.78 -1.86)"/><path class="cls-2" d="M82.21,113.58A.82.82,0,0,1,81.8,112l22.14-12.79a.83.83,0,0,1,1.13.3.84.84,0,0,1-.31,1.13L82.62,113.46A.75.75,0,0,1,82.21,113.58Z" transform="translate(-0.78 -1.86)"/><path class="cls-2" d="M80.9,108.2a.82.82,0,0,1-.84-.8.84.84,0,0,1,.43-.74l12.84-7.41a.82.82,0,1,1,.82,1.43h0l-12.84,7.41A.84.84,0,0,1,80.9,108.2Z" transform="translate(-0.78 -1.86)"/><path class="cls-2" d="M84.82,112.07h0a.82.82,0,0,1-.82-.82h0a11.86,11.86,0,0,0-6.19-10.56.82.82,0,0,1,.81-1.43h0a13.46,13.46,0,0,1,7,12A.81.81,0,0,1,84.82,112.07Z" transform="translate(-0.78 -1.86)"/><path class="cls-2" d="M42.77,113.58a.84.84,0,0,1-.41-.11L20.21,100.68A.82.82,0,0,1,21,99.25L43.18,112a.82.82,0,0,1-.41,1.54Z" transform="translate(-0.78 -1.86)"/><path class="cls-2" d="M44.08,108.2a.84.84,0,0,1-.41-.11l-12.84-7.41a.83.83,0,0,1-.3-1.13.82.82,0,0,1,1.12-.3l12.84,7.41a.82.82,0,0,1-.41,1.54Z" transform="translate(-0.78 -1.86)"/><path class="cls-2" d="M40.16,112.07a.82.82,0,0,1-.82-.82,13.46,13.46,0,0,1,7-12,.82.82,0,1,1,.81,1.43A11.85,11.85,0,0,0,41,111.24a.82.82,0,0,1-.81.83h0Z" transform="translate(-0.78 -1.86)"/><path class="cls-2" d="M50.35,104.67a2.49,2.49,0,0,1,1.08.19v1a2.29,2.29,0,0,0-1-.2c-.84,0-1.23.34-1.23,1.65s.39,1.65,1.23,1.65a2.29,2.29,0,0,0,1-.2v1a2.49,2.49,0,0,1-1.08.19c-1.51,0-2.23-.74-2.24-2.69S48.84,104.67,50.35,104.67Z" transform="translate(-0.78 -1.86)"/><path class="cls-2" d="M52.47,109.94l1.44-5.21h1.27l1.44,5.21H55.44l-.24-1.06H53.88l-.24,1.06ZM54.1,108H55l-.44-2Z" transform="translate(-0.78 -1.86)"/><path class="cls-2" d="M60.73,109.31H59.61l-.8-2.54v3.17H57.75v-5.18h1.39l1,3.22,1-3.22h1.39v5.18h-1v-3.17Z" transform="translate(-0.78 -1.86)"/><path class="cls-2" d="M65,109.94H63.9v-5.18h1.75a1.61,1.61,0,0,1,1.84,1.34,1.35,1.35,0,0,1,0,.35c0,.9-.48,1.69-1.86,1.69H65Zm0-2.79h.66a.69.69,0,1,0,0-1.38H65Z" transform="translate(-0.78 -1.86)"/><path class="cls-2" d="M68.57,108.3v-3.54h1.1v3.49c0,.67.43.79.82.79s.82-.12.82-.79v-3.49h1.1v3.54a1.94,1.94,0,0,1-3.85,0Z" transform="translate(-0.78 -1.86)"/><path class="cls-2" d="M77.29,108.29c0,1.28-.81,1.75-2,1.75a3.57,3.57,0,0,1-1.61-.32v-1.13a3.26,3.26,0,0,0,1.5.4c.78,0,1-.24,1-.59s-.17-.52-.7-.59c-1.31-.17-1.82-.56-1.82-1.57s.57-1.56,1.94-1.56a3.47,3.47,0,0,1,1.46.26V106a3.66,3.66,0,0,0-1.38-.28c-.57,0-.89.18-.89.51s.2.49.74.57C76.66,107,77.29,107.19,77.29,108.29Z" transform="translate(-0.78 -1.86)"/><path class="cls-2" d="M49.9,115.12h-2v1.17h2.2v1H46.8v-5.18h3.3v1H47.9v1h2Z" transform="translate(-0.78 -1.86)"/><path class="cls-2" d="M53.37,115.45l-.9,1.86h-1.3l1.43-2.69-1.34-2.49h1.27l.84,1.85.84-1.85h1.27l-1.34,2.49,1.43,2.69h-1.3Z" transform="translate(-0.78 -1.86)"/><path class="cls-2" d="M57.83,117.3h-1.1v-5.18h1.75a1.61,1.61,0,0,1,1.84,1.34,1.35,1.35,0,0,1,0,.35c0,.9-.48,1.69-1.86,1.69h-.65Zm0-2.79h.66a.69.69,0,1,0,0-1.38h-.66Z" transform="translate(-0.78 -1.86)"/><path class="cls-2" d="M64.52,115.12h-2v1.17h2.2v1h-3.3v-5.18h3.3v1h-2.2v1h2Z" transform="translate(-0.78 -1.86)"/><path class="cls-2" d="M67.08,117.3H66v-5.18h1.76c1.39,0,1.85.63,1.85,1.62a1.37,1.37,0,0,1-.72,1.39l.92,2.16H68.48l-.7-1.94h-.71Zm0-2.94h.75c.49,0,.55-.33.55-.61s-.06-.61-.55-.61h-.75Z" transform="translate(-0.78 -1.86)"/><path class="cls-2" d="M72.7,113.13v4.17H71.6v-4.17H70.35v-1H74v1Z" transform="translate(-0.78 -1.86)"/><path class="cls-2" d="M78.64,115.65c0,1.28-.81,1.75-2,1.75a3.57,3.57,0,0,1-1.61-.32V116a3.26,3.26,0,0,0,1.5.4c.78,0,1-.24,1-.59s-.17-.52-.7-.59C75.49,115,75,114.6,75,113.59s.57-1.56,1.94-1.56a3.47,3.47,0,0,1,1.46.26v1.07a3.66,3.66,0,0,0-1.38-.28c-.57,0-.89.18-.89.51s.2.49.74.57C78,114.31,78.64,114.55,78.64,115.65Z" transform="translate(-0.78 -1.86)"/><path class="cls-2" d="M62.67,131.28a.82.82,0,0,1-.82-.82h0V121a.82.82,0,0,1,.82-.82.71.71,0,0,1,.29,0l6.75,2.55a.82.82,0,0,1,.51,1,.83.83,0,0,1-.51.51l-6.18,2v4.15a.82.82,0,0,1-.84.8Zm.82-9.13v2.42l3.44-1.12Z" transform="translate(-0.78 -1.86)"/></svg>